<svg width="176" height="152" viewBox="0 0 176 152" fill="none" xmlns="http://www.w3.org/2000/svg">
<path d="M130.738 82.641C134.635 82.6431 138.483 81.8072 142 80.1948C132.896 76.0479 127.093 67.2388 127.093 57.5648C127.093 47.8909 132.896 39.0817 142 34.9348C134.834 31.6558 126.503 31.6903 119.367 35.0287C112.231 38.367 105.5 48 105.5 56.5" stroke="#FFEDB4" stroke-width="8" stroke-linecap="round" stroke-linejoin="round"/>
<path fill-rule="evenodd" clip-rule="evenodd" d="M118.666 92.8145C120.459 88.7168 119.896 83.9828 117.191 80.4087C114.486 76.8346 110.053 74.968 105.575 75.5171C101.683 65.6598 91.4517 59.7437 80.8615 61.2265C70.2714 62.7093 62.1011 71.2018 61.126 81.7406C49.9319 82.6779 41.4923 92.2082 42.0238 103.311C42.5553 114.414 51.8675 123.113 63.101 122.999H109.227C116.573 123.04 123.08 118.321 125.253 111.378C127.425 104.435 124.75 96.9035 118.666 92.8311V92.8145Z" stroke="#EBEBE5" stroke-width="8" stroke-linecap="round" stroke-linejoin="round"/>
</svg>
