<svg width="176" height="152" viewBox="0 0 176 152" fill="none" xmlns="http://www.w3.org/2000/svg">
<path d="M130.738 82.641C134.635 82.6431 138.483 81.8072 142 80.1948C132.896 76.0479 127.093 67.2388 127.093 57.5648C127.093 47.8909 132.896 39.0817 142 34.9348C134.834 31.6558 126.503 31.6903 119.367 35.0287C112.231 38.367 105.5 48 105.5 56.5" stroke="#FFEDB4" stroke-width="8" stroke-linecap="round" stroke-linejoin="round"/>
<path d="M45.6439 114C43.5247 110.939 42.2137 107.279 42.0238 103.311C41.4923 92.2082 49.9319 82.6779 61.126 81.7406C62.1011 71.2018 70.2714 62.7093 80.8615 61.2265C91.4517 59.7437 101.683 65.6598 105.575 75.5171C110.053 74.968 114.486 76.8346 117.191 80.4087C119.896 83.9828 120.459 88.7168 118.666 92.8145V92.8311C124.75 96.9035 127.425 104.435 125.253 111.378C124.967 112.293 124.605 113.169 124.177 114" stroke="#EBEBE5" stroke-width="8" stroke-linecap="round" stroke-linejoin="round"/>
<path d="M95.4999 108.167L79.9997 123.667H91.6664L75 140.333" stroke="#D674C0" stroke-width="8" stroke-linecap="round" stroke-linejoin="round"/>
<circle cx="55" cy="126" r="4" fill="white"/>
<circle cx="65" cy="136" r="4" fill="white"/>
<circle cx="65" cy="115" r="4" fill="white"/>
<circle cx="105" cy="136" r="4" fill="white"/>
<circle cx="105" cy="115" r="4" fill="white"/>
<circle cx="115" cy="126" r="4" fill="white"/>
</svg>
