<svg width="176" height="152" viewBox="0 0 176 152" fill="none" xmlns="http://www.w3.org/2000/svg">
<path d="M130.738 82.641C134.635 82.6431 138.483 81.8072 142 80.1948C132.896 76.0479 127.093 67.2388 127.093 57.5648C127.093 47.8909 132.896 39.0817 142 34.9348C134.834 31.6558 126.503 31.6903 119.367 35.0287C112.231 38.367 105.5 48 105.5 56.5" stroke="#FFEDB4" stroke-width="8" stroke-linecap="round" stroke-linejoin="round"/>
<path fill-rule="evenodd" clip-rule="evenodd" d="M121.621 96.3712C123.693 91.5637 123.034 86.0149 119.894 81.826C116.755 77.6371 111.613 75.4485 106.417 76.089C101.914 64.4923 90.0179 57.5233 77.7 59.2656C65.382 61.0079 55.8855 71.0027 54.7748 83.3935C41.9418 84.7927 32.4143 95.9377 33.0281 108.832C33.6418 121.727 44.1849 131.916 57.0927 132.09H110.659C119.221 132.048 126.761 126.446 129.273 118.261C131.785 110.076 128.685 101.208 121.621 96.3712Z" stroke="#EBEBE5" stroke-width="8" stroke-linecap="round" stroke-linejoin="round"/>
</svg>
