<svg width="176" height="152" viewBox="0 0 176 152" fill="none" xmlns="http://www.w3.org/2000/svg">
<g clip-path="url(#clip0_244_6904)">
<path d="M130.738 82.641C134.635 82.6431 138.483 81.8072 142 80.1948C132.896 76.0479 127.093 67.2388 127.093 57.5648C127.093 47.8909 132.896 39.0817 142 34.9348C134.834 31.6558 126.503 31.6903 119.367 35.0287C112.231 38.367 105.5 48 105.5 56.5" stroke="#FFEDB4" stroke-width="8" stroke-linecap="round" stroke-linejoin="round"/>
<path d="M40.303 125.088C36.061 120.919 33.3314 115.206 33.0281 108.832C32.4143 95.9377 41.9418 84.7927 54.7748 83.3935C55.8855 71.0027 65.382 61.0079 77.7 59.2656C90.0179 57.5233 101.914 64.4923 106.417 76.089C111.613 75.4485 116.755 77.6371 119.894 81.826C123.034 86.0149 123.693 91.5637 121.621 96.3712C128.685 101.208 131.785 110.076 129.273 118.261C128.488 120.819 127.211 123.125 125.566 125.088" stroke="#EBEBE5" stroke-width="8" stroke-linecap="round" stroke-linejoin="round"/>
<path d="M92.3333 139.333L115.667 116" stroke="#42A3F1" stroke-width="8" stroke-linecap="round" stroke-linejoin="round"/>
<path d="M45 139.333L68.3333 116" stroke="#42A3F1" stroke-width="8" stroke-linecap="round" stroke-linejoin="round"/>
<path d="M90.5 112.167L74.9998 127.667H86.6665L70.0001 144.333" stroke="#D674C0" stroke-width="8" stroke-linecap="round" stroke-linejoin="round"/>
</g>
<defs>
<clipPath id="clip0_244_6904">
<rect width="144" height="144" fill="white" transform="translate(16 4)"/>
</clipPath>
</defs>
</svg>
