<svg width="176" height="152" viewBox="0 0 176 152" fill="none" xmlns="http://www.w3.org/2000/svg">
<path fill-rule="evenodd" clip-rule="evenodd" d="M123.636 76.0001C123.636 56.3187 107.682 40.3638 88.0001 40.3638V40.3638C68.3187 40.3638 52.3638 56.3187 52.3638 76.0001H52.3638C52.3638 95.6816 68.3187 111.636 88.0001 111.636V111.636C107.682 111.636 123.636 95.6816 123.636 76.0001V76.0001Z" stroke="#FFD651" stroke-width="8" stroke-linecap="round" stroke-linejoin="round"/>
<path d="M88 121.818V132" stroke="#FFD651" stroke-width="8" stroke-linecap="round" stroke-linejoin="round"/>
<path d="M133.818 76H144" stroke="#FFD651" stroke-width="8" stroke-linecap="round" stroke-linejoin="round"/>
<path d="M88 30.1818V20" stroke="#FFD651" stroke-width="8" stroke-linecap="round" stroke-linejoin="round"/>
<path d="M42.1818 76H32" stroke="#FFD651" stroke-width="8" stroke-linecap="round" stroke-linejoin="round"/>
<path d="M55.606 108.398L48.4023 115.602" stroke="#FFD651" stroke-width="8" stroke-linecap="round" stroke-linejoin="round"/>
<path d="M120.399 108.398L127.597 115.597" stroke="#FFD651" stroke-width="8" stroke-linecap="round" stroke-linejoin="round"/>
<path d="M120.404 43.606L127.602 36.4075" stroke="#FFD651" stroke-width="8" stroke-linecap="round" stroke-linejoin="round"/>
<path d="M55.6009 43.606L48.4023 36.4075" stroke="#FFD651" stroke-width="8" stroke-linecap="round" stroke-linejoin="round"/>
</svg>
