<svg width="176" height="152" viewBox="0 0 176 152" fill="none" xmlns="http://www.w3.org/2000/svg">
<path d="M80.2671 19.8147L80.4761 25.3135" stroke="#FFD651" stroke-width="8" stroke-linecap="round" stroke-linejoin="round"/>
<path d="M42.1936 32.2756L47.9014 37.5654" stroke="#FFD651" stroke-width="8" stroke-linecap="round" stroke-linejoin="round"/>
<path d="M119.177 29.3488L113.887 35.0566" stroke="#FFD651" stroke-width="8" stroke-linecap="round" stroke-linejoin="round"/>
<path d="M32.6597 71.1853L38.1584 70.9762" stroke="#FFD651" stroke-width="8" stroke-linecap="round" stroke-linejoin="round"/>
<path d="M110.117 51.7588C102.171 39.094 86.7062 33.3493 72.4191 37.7552C58.132 42.1611 48.5888 55.6178 49.156 70.5581C49.3766 76.3449 51.1338 81.9686 54.2469 86.8517" stroke="#FFD651" stroke-width="8" stroke-linecap="round" stroke-linejoin="round"/>
<path fill-rule="evenodd" clip-rule="evenodd" d="M138.666 92.8145C140.459 88.7168 139.896 83.9828 137.191 80.4087C134.486 76.8346 130.053 74.968 125.575 75.5171C121.683 65.6598 111.452 59.7437 100.862 61.2265C90.2714 62.7093 82.1011 71.2018 81.126 81.7406C69.9319 82.6779 61.4923 92.2082 62.0238 103.311C62.5553 114.414 71.8675 123.113 83.101 122.999H129.227C136.573 123.04 143.08 118.321 145.253 111.378C147.425 104.435 144.75 96.9035 138.666 92.8311V92.8145Z" stroke="white" stroke-width="8" stroke-linecap="round" stroke-linejoin="round"/>
</svg>
