<svg width="176" height="152" viewBox="0 0 176 152" fill="none" xmlns="http://www.w3.org/2000/svg">
<path d="M80.2671 19.8148L80.4761 25.3135" stroke="#FFD651" stroke-width="8" stroke-linecap="round" stroke-linejoin="round"/>
<path d="M42.1936 32.2757L47.9014 37.5654" stroke="#FFD651" stroke-width="8" stroke-linecap="round" stroke-linejoin="round"/>
<path d="M119.177 29.3488L113.887 35.0566" stroke="#FFD651" stroke-width="8" stroke-linecap="round" stroke-linejoin="round"/>
<path d="M32.6597 71.1853L38.1584 70.9762" stroke="#FFD651" stroke-width="8" stroke-linecap="round" stroke-linejoin="round"/>
<path d="M110.117 51.7588C102.171 39.094 86.7062 33.3493 72.4191 37.7552C58.132 42.1611 48.5888 55.6179 49.156 70.5581C49.3766 76.3449 51.1338 81.9687 54.2469 86.8517" stroke="#FFD651" stroke-width="8" stroke-linecap="round" stroke-linejoin="round"/>
<path d="M65.6439 114C63.5247 110.939 62.2137 107.279 62.0238 103.311C61.4923 92.2082 69.9319 82.6779 81.126 81.7406C82.1011 71.2018 90.2714 62.7093 100.862 61.2265C111.452 59.7437 121.683 65.6598 125.575 75.5171C130.053 74.968 134.486 76.8346 137.191 80.4087C139.896 83.9828 140.459 88.7168 138.666 92.8145V92.8311C144.75 96.9035 147.425 104.435 145.253 111.378C144.967 112.293 144.605 113.169 144.177 114" stroke="white" stroke-width="8" stroke-linecap="round" stroke-linejoin="round"/>
<circle cx="106.333" cy="115" r="4" fill="white"/>
<circle cx="131" cy="115" r="4" fill="white"/>
<circle cx="84" cy="115" r="4" fill="white"/>
<path d="M108.333 137.667L122.5 123.5" stroke="#42A3F1" stroke-width="8" stroke-linecap="round" stroke-linejoin="round"/>
<path d="M86 137.667L100.167 123.5" stroke="#42A3F1" stroke-width="8" stroke-linecap="round" stroke-linejoin="round"/>
<path d="M61 137.667L75.1666 123.5" stroke="#42A3F1" stroke-width="8" stroke-linecap="round" stroke-linejoin="round"/>
</svg>
