<svg width="176" height="152" viewBox="0 0 176 152" fill="none" xmlns="http://www.w3.org/2000/svg">
<path d="M75.8269 20V24.8697" stroke="#FFD651" stroke-width="8" stroke-linecap="round" stroke-linejoin="round"/>
<path d="M41.7393 29.7393L46.6089 34.6089" stroke="#FFD651" stroke-width="8" stroke-linecap="round" stroke-linejoin="round"/>
<path d="M109.915 29.7393L105.045 34.6089" stroke="#FFD651" stroke-width="8" stroke-linecap="round" stroke-linejoin="round"/>
<path d="M32 63.8269H36.8697" stroke="#FFD651" stroke-width="8" stroke-linecap="round" stroke-linejoin="round"/>
<path d="M101.149 49.252C94.5485 37.7853 81.0661 32.1852 68.2838 35.6011C55.5015 39.0169 46.6098 50.596 46.6091 63.8269C46.6097 68.9516 47.9744 73.9839 50.5633 78.4066" stroke="#FFD651" stroke-width="8" stroke-linecap="round" stroke-linejoin="round"/>
<path fill-rule="evenodd" clip-rule="evenodd" d="M135.621 96.3712C137.693 91.5637 137.034 86.0149 133.894 81.826C130.755 77.6371 125.613 75.4485 120.417 76.089C115.914 64.4923 104.018 57.5233 91.7 59.2656C79.382 61.0079 69.8855 71.0027 68.7748 83.3935C55.9418 84.7927 46.4143 95.9377 47.0281 108.832C47.6418 121.727 58.1849 131.916 71.0927 132.09H124.659C133.221 132.048 140.761 126.446 143.273 118.261C145.785 110.076 142.685 101.208 135.621 96.3712Z" stroke="white" stroke-width="8" stroke-linecap="round" stroke-linejoin="round"/>
</svg>
