<svg width="176" height="152" viewBox="0 0 176 152" fill="none" xmlns="http://www.w3.org/2000/svg">
<path d="M46.303 111.088C42.061 106.919 39.3314 101.206 39.0281 94.8321C38.4143 81.9377 47.9418 70.7927 60.7748 69.3935C61.8855 57.0027 71.382 47.0079 83.7 45.2656C96.0179 43.5233 107.914 50.4923 112.417 62.089C117.613 61.4485 122.755 63.6371 125.894 67.826C129.034 72.0149 129.693 77.5637 127.621 82.3712C134.685 87.2085 137.785 96.076 135.273 104.261C134.488 106.819 133.211 109.125 131.566 111.088" stroke="#9F9C90" stroke-width="8" stroke-linecap="round" stroke-linejoin="round"/>
<path d="M97.4999 98.1667L81.9997 113.667H93.6664L77 130.333" stroke="#D674C0" stroke-width="8" stroke-linecap="round" stroke-linejoin="round"/>
<circle cx="120" cy="104" r="4" fill="white"/>
<path d="M97.3333 126.667L111.5 112.5" stroke="#42A3F1" stroke-width="8" stroke-linecap="round" stroke-linejoin="round"/>
<circle cx="73" cy="104" r="4" fill="white"/>
<path d="M50.3333 126.667L64.4998 112.5" stroke="#42A3F1" stroke-width="8" stroke-linecap="round" stroke-linejoin="round"/>
</svg>
