<svg width="176" height="152" viewBox="0 0 176 152" fill="none" xmlns="http://www.w3.org/2000/svg">
<path d="M75.8269 20V24.8697" stroke="#FFD651" stroke-width="8" stroke-linecap="round" stroke-linejoin="round"/>
<path d="M41.7393 29.7393L46.6089 34.6089" stroke="#FFD651" stroke-width="8" stroke-linecap="round" stroke-linejoin="round"/>
<path d="M109.915 29.7393L105.045 34.6089" stroke="#FFD651" stroke-width="8" stroke-linecap="round" stroke-linejoin="round"/>
<path d="M32 63.8269H36.8697" stroke="#FFD651" stroke-width="8" stroke-linecap="round" stroke-linejoin="round"/>
<path d="M101.149 49.252C94.5485 37.7853 81.0661 32.1852 68.2838 35.6011C55.5015 39.0169 46.6098 50.596 46.6091 63.8269C46.6097 68.9516 47.9744 73.9839 50.5633 78.4066" stroke="#FFD651" stroke-width="8" stroke-linecap="round" stroke-linejoin="round"/>
<path d="M54.303 125.088C50.061 120.919 47.3314 115.206 47.0281 108.832C46.4143 95.9377 55.9418 84.7927 68.7748 83.3935C69.8855 71.0027 79.382 61.0079 91.7 59.2656C104.018 57.5233 115.914 64.4923 120.417 76.089C125.613 75.4485 130.755 77.6371 133.894 81.826C137.034 86.0149 137.693 91.5637 135.621 96.3712C142.685 101.208 145.785 110.076 143.273 118.261C142.488 120.819 141.211 123.125 139.566 125.088" stroke="white" stroke-width="8" stroke-linecap="round" stroke-linejoin="round"/>
<path d="M108.5 111.167L92.9997 126.667H104.666L88 143.333" stroke="#D674C0" stroke-width="8" stroke-linecap="round" stroke-linejoin="round"/>
<circle cx="68" cy="129" r="4" fill="white"/>
<circle cx="78" cy="139" r="4" fill="white"/>
<circle cx="78" cy="118" r="4" fill="white"/>
<circle cx="118" cy="139" r="4" fill="white"/>
<circle cx="118" cy="118" r="4" fill="white"/>
<circle cx="128" cy="129" r="4" fill="white"/>
</svg>
